<svg width="38" height="38" fill="none" xmlns="http://www.w3.org/2000/svg"><path d="M13.811 14.78l9.212 9.588c.319.331 1.547-.165 1.204-.52l-9.215-9.589c-.319-.33-1.546.165-1.204.52h.003z" fill="#fff"/><path d="M14.77 24.468a763.58 763.58 0 009.565-9.51c.194-.196.14-.4-.125-.472-.264-.072-.71.045-.915.252-3.16 3.2-6.349 6.372-9.565 9.513-.197.197-.137.4.124.472.282.076.705-.045.916-.251v-.004z" fill="#fff"/><path d="M13.395 19.91c3.568.025 7.137.035 10.705.042.278 0 .704-.093.855-.361.15-.269-.127-.393-.352-.393-3.568-.003-7.137-.017-10.705-.041-.275 0-.704.093-.855.361-.151.269.127.39.352.393z" fill="#fff"/><path d="M19.763 24.53c.077-3.74.121-7.484.134-11.225 0-.551-1.294-.269-1.294.165a626.67 626.67 0 01-.134 11.226c-.01.547 1.288.272 1.294-.166z" fill="#fff"/></svg>