<svg width="42" height="42" fill="none" xmlns="http://www.w3.org/2000/svg"><path d="M15.517 28.143a478.651 478.651 0 017.975-14.474c.258-.445-.222-.644-.542-.667-.429-.024-1.069.181-1.317.615a488.45 488.45 0 00-7.974 14.48c-.475.901 1.517.685 1.858.046z" fill="#fff"/><path d="M15.326 18.666l13.291 1.078c.418.035 1.094-.176 1.316-.615.238-.469-.206-.639-.542-.668l-13.29-1.078c-.419-.035-1.095.176-1.317.615-.238.469.206.639.542.668zm-2.71 5.664c4.315.521 8.63 1.09 12.935 1.699.47.064 1.053-.035 1.409-.428.273-.299.258-.738-.191-.802a687.085 687.085 0 00-13.384-1.758c-.413-.047-1.1.188-1.316.615-.243.475.211.627.541.668l.006.006z" fill="#fff"/><path d="M27.032 14.466a245.86 245.86 0 00-7.912 13.93c-.475.901 1.517.69 1.858.046a249.095 249.095 0 017.913-13.929c.268-.44-.233-.65-.542-.668-.44-.023-1.053.182-1.317.615v.006z" fill="#fff"/></svg>