<svg width="162" height="36" fill="none" xmlns="http://www.w3.org/2000/svg"><path d="M.946 32.227V16.516c-.027-.894.34-2.682 2.013-2.682h9M33.513 3.773v15.711c.027.894-.34 2.682-2.013 2.682h-9" stroke="#BFCD15" stroke-width="1.888" stroke-linecap="round"/><ellipse cx=".944" cy="35.057" rx=".944" ry=".943" fill="#BFCD15"/><ellipse cx="33.515" cy=".943" rx=".944" ry=".943" transform="rotate(-180 33.515 .943)" fill="#BFCD15"/><path d="M5.271 22.009h8.275l7.092-8.018h8.707" stroke="#BFCD15" stroke-width="1.888" stroke-linecap="round" stroke-linejoin="round"/><path d="M43.2 23.386c-.28 0-.494-.076-.646-.227-.152-.164-.228-.391-.228-.681V10.806c0-.29.076-.51.228-.662.164-.151.386-.227.664-.227h4.517c1.442 0 2.549.353 3.32 1.06.785.705 1.177 1.695 1.177 2.97 0 1.286-.392 2.282-1.176 2.988-.772.706-1.88 1.06-3.321 1.06H44.09v4.483c0 .29-.076.517-.228.68-.139.152-.36.228-.664.228zm.891-6.81h3.416c.987 0 1.727-.221 2.22-.662.506-.454.76-1.11.76-1.968 0-.857-.254-1.5-.76-1.93-.493-.44-1.233-.661-2.22-.661H44.09v5.22zm15.309 6.81c-.266 0-.48-.057-.645-.17-.165-.127-.304-.316-.418-.568l-5.142-11.71c-.102-.24-.133-.44-.095-.605a.668.668 0 01.284-.397.937.937 0 01.532-.151c.265 0 .462.056.588.17.14.113.26.284.36.51l4.897 11.332h-.665l4.878-11.332c.1-.226.22-.397.36-.51.14-.114.335-.17.588-.17.203 0 .367.05.494.15.139.102.221.24.246.417.038.164.013.36-.075.586l-5.162 11.71c-.101.252-.234.441-.399.567-.152.114-.36.17-.626.17zm9.077-.133c-.278 0-.5-.082-.664-.246-.152-.164-.228-.384-.228-.662V10.73c0-.29.076-.51.228-.662.152-.151.367-.227.645-.227.291 0 .513.076.665.227.151.152.227.372.227.662v11.01h6.035c.266 0 .462.063.588.19.14.125.21.308.21.548 0 .252-.07.447-.21.586-.126.126-.322.19-.588.19h-6.908zm10.335.076a1.1 1.1 0 01-1.139-1.135c0-.328.108-.593.323-.795.215-.201.487-.302.816-.302.354 0 .626.1.816.302.202.202.303.467.303.795s-.1.599-.303.813c-.19.215-.462.322-.816.322zm9.153.095c-.594 0-1.17-.05-1.727-.152a7.807 7.807 0 01-1.575-.416 6.018 6.018 0 01-1.328-.7 1.03 1.03 0 01-.36-.416.89.89 0 01-.057-.473.928.928 0 01.208-.416.72.72 0 01.399-.208c.152-.025.316.025.493.151a6.28 6.28 0 001.822.851 8.04 8.04 0 002.125.265c1.114 0 1.93-.202 2.448-.605.532-.404.797-.933.797-1.59 0-.541-.19-.964-.569-1.267-.38-.315-1.018-.56-1.916-.737l-2.012-.416c-1.19-.253-2.081-.669-2.676-1.249-.582-.58-.873-1.356-.873-2.327 0-.592.12-1.128.36-1.608a3.67 3.67 0 011.026-1.267 4.803 4.803 0 011.556-.813 6.738 6.738 0 012.011-.284c.785 0 1.518.107 2.202.321a6.12 6.12 0 011.878.946.814.814 0 01.304.416.8.8 0 01.019.454.63.63 0 01-.209.379.61.61 0 01-.398.17c-.152.012-.323-.044-.513-.17a5.214 5.214 0 00-1.556-.757 5.897 5.897 0 00-1.746-.246c-.645 0-1.208.1-1.689.303-.468.201-.835.485-1.1.851-.253.353-.38.77-.38 1.248 0 .58.177 1.035.531 1.362.355.328.95.58 1.784.757l1.993.397c1.265.265 2.201.675 2.808 1.23.62.542.93 1.274.93 2.194 0 .58-.12 1.104-.36 1.57-.228.467-.557.87-.987 1.211-.43.328-.955.587-1.575.776a7.642 7.642 0 01-2.088.265zm11.048 0c-.91 0-1.702-.196-2.372-.587a3.966 3.966 0 01-1.556-1.665c-.367-.718-.55-1.563-.55-2.534 0-.732.1-1.388.303-1.968a4.325 4.325 0 01.911-1.513c.392-.416.86-.732 1.404-.946a4.883 4.883 0 011.86-.34c.911 0 1.702.195 2.372.586.671.39 1.189.946 1.556 1.665.367.706.551 1.544.551 2.516 0 .731-.108 1.393-.323 1.986a4.106 4.106 0 01-.892 1.513 4 4 0 01-1.423.965c-.544.214-1.158.322-1.84.322zm0-1.362c.557 0 1.038-.133 1.442-.398.418-.265.734-.65.949-1.154.228-.504.342-1.128.342-1.872 0-1.11-.247-1.955-.74-2.535-.494-.58-1.158-.87-1.993-.87-.544 0-1.025.132-1.442.397-.405.252-.721.63-.949 1.135-.228.504-.342 1.128-.342 1.873 0 1.11.247 1.96.74 2.553.507.58 1.17.87 1.993.87zm9.594 1.362c-.949 0-1.67-.278-2.163-.833-.493-.567-.74-1.38-.74-2.44v-9.496c0-.29.076-.505.228-.643.151-.152.36-.227.626-.227.278 0 .493.075.645.226.152.14.228.354.228.644v9.364c0 .655.133 1.147.398 1.475.279.315.671.473 1.177.473h.303l.266-.038c.139-.012.24.025.304.114.063.088.095.265.095.53 0 .239-.057.428-.171.567-.101.126-.272.208-.513.246a3.08 3.08 0 01-.341.019 3.087 3.087 0 01-.342.019zm6.107 0c-.747 0-1.373-.14-1.879-.417a2.56 2.56 0 01-1.101-1.23c-.24-.542-.36-1.223-.36-2.042v-4.956c0-.29.069-.505.209-.644.151-.15.366-.227.645-.227.278 0 .493.076.645.227.152.14.228.354.228.644v4.956c0 .782.158 1.362.474 1.74.316.366.816.549 1.499.549.759 0 1.373-.253 1.841-.757.481-.504.721-1.173.721-2.005v-4.483c0-.29.07-.505.209-.644.152-.15.367-.227.645-.227s.494.076.645.227c.152.14.228.354.228.644v7.718c0 .592-.278.889-.835.889-.278 0-.493-.076-.645-.227-.139-.152-.209-.372-.209-.662V20.85l.247.322c-.253.73-.664 1.292-1.234 1.683-.556.378-1.214.568-1.973.568zm11.261 0c-.746 0-1.372-.133-1.879-.398a2.603 2.603 0 01-1.119-1.154c-.241-.504-.361-1.122-.361-1.854v-4.653h-1.214c-.228 0-.405-.057-.532-.17a.666.666 0 01-.189-.492c0-.214.063-.378.189-.492.127-.113.304-.17.532-.17h1.214v-2.062c0-.29.076-.505.228-.643.152-.152.367-.227.645-.227.279 0 .487.075.626.227.152.138.228.353.228.643v2.062h2.296c.241 0 .424.057.551.17.126.114.189.277.189.492a.666.666 0 01-.189.492c-.127.113-.31.17-.551.17h-2.296v4.502c0 .694.146 1.217.437 1.57.291.353.771.53 1.442.53.24 0 .443-.019.607-.057.165-.05.31-.076.437-.076a.31.31 0 01.284.114c.089.088.133.252.133.492 0 .176-.032.34-.095.492-.05.138-.158.233-.322.284-.152.05-.355.094-.608.132a3.56 3.56 0 01-.683.076zm3.97-.076c-.265 0-.474-.082-.626-.246-.152-.164-.228-.391-.228-.681v-7.548c0-.303.076-.53.228-.68.152-.165.361-.247.626-.247.279 0 .494.082.646.246.151.152.227.378.227.681v7.548c0 .29-.076.517-.227.681-.14.164-.355.246-.646.246zm0-11.445c-.341 0-.613-.088-.816-.265-.189-.189-.284-.435-.284-.737 0-.328.095-.574.284-.738.203-.177.475-.265.816-.265.367 0 .639.088.816.265.19.164.285.41.285.738 0 .302-.095.548-.285.737-.177.177-.449.265-.816.265zm7.578 11.521c-.911 0-1.702-.196-2.372-.587a3.964 3.964 0 01-1.556-1.665c-.367-.718-.551-1.563-.551-2.534 0-.732.102-1.388.304-1.968a4.328 4.328 0 01.911-1.513c.392-.416.86-.732 1.404-.946a4.886 4.886 0 011.86-.34c.911 0 1.702.195 2.372.586.671.39 1.189.946 1.556 1.665.367.706.551 1.544.551 2.516 0 .731-.108 1.393-.323 1.986a4.12 4.12 0 01-.892 1.513 4.009 4.009 0 01-1.423.965c-.544.214-1.158.322-1.841.322zm0-1.362c.557 0 1.037-.133 1.442-.398.418-.265.734-.65.949-1.154.228-.504.342-1.128.342-1.872 0-1.11-.247-1.955-.74-2.535-.494-.58-1.158-.87-1.993-.87-.544 0-1.025.132-1.442.397-.405.252-.721.63-.949 1.135-.228.504-.342 1.128-.342 1.873 0 1.11.247 1.96.74 2.553.506.58 1.171.87 1.993.87zm7.545 1.324c-.266 0-.475-.076-.627-.227-.151-.152-.227-.372-.227-.662v-7.718c0-.29.076-.505.227-.644.152-.15.361-.227.627-.227.265 0 .468.076.607.227.152.14.228.354.228.644v1.55l-.209-.283c.266-.719.696-1.261 1.29-1.627.608-.366 1.297-.548 2.069-.548.746 0 1.36.132 1.841.397.48.265.841.668 1.081 1.21.241.543.361 1.23.361 2.062v4.957c0 .29-.076.51-.228.662-.139.151-.348.227-.626.227s-.494-.076-.645-.227c-.152-.152-.228-.372-.228-.662v-4.862c0-.82-.158-1.419-.475-1.797-.316-.378-.822-.568-1.518-.568-.809 0-1.461.253-1.954.757-.481.492-.721 1.16-.721 2.005v4.465c0 .592-.291.889-.873.889zm13.194.038c-.57 0-1.145-.064-1.727-.19a5.215 5.215 0 01-1.613-.7.818.818 0 01-.304-.321.882.882 0 01-.057-.397.727.727 0 01.171-.36.48.48 0 01.323-.17.631.631 0 01.436.095 5.77 5.77 0 001.423.586c.468.114.93.17 1.386.17.695 0 1.22-.126 1.575-.378.354-.252.531-.587.531-1.003 0-.353-.12-.624-.361-.813-.227-.202-.588-.353-1.081-.454l-1.765-.36c-.784-.176-1.379-.466-1.784-.87-.392-.416-.588-.946-.588-1.589 0-.567.152-1.06.455-1.475.317-.429.753-.757 1.31-.984.556-.227 1.195-.34 1.916-.34.557 0 1.082.075 1.575.227.506.138.962.353 1.367.643a.568.568 0 01.284.34.606.606 0 01.019.398.615.615 0 01-.17.321.632.632 0 01-.342.17.81.81 0 01-.455-.113 3.586 3.586 0 00-1.139-.53 3.96 3.96 0 00-1.139-.17c-.683 0-1.202.132-1.556.397a1.255 1.255 0 00-.512 1.04c0 .328.101.6.303.814.216.214.551.372 1.006.473l1.765.36c.822.176 1.442.46 1.86.85.417.379.626.896.626 1.552 0 .857-.341 1.538-1.025 2.043-.67.492-1.575.738-2.713.738z" fill="#fff"/></svg>