<svg width="36" height="36" fill="none" xmlns="http://www.w3.org/2000/svg"><path d="M13.15 13.61a1 1 0 10-1.1 1.67l1.1-1.67zm2.853 3.075l.55-.835-.55.835zm3.994 0l-.55-.835.55.835zm3.953-1.405a1 1 0 00-1.1-1.67l1.1 1.67zM12.6 11h10.8V9H12.6v2zM26 13.556v8.888h2v-8.888h-2zM23.4 25H12.6v2h10.8v-2zM10 22.444v-8.888H8v8.888h2zM12.6 25c-1.448 0-2.6-1.156-2.6-2.556H8C8 24.972 10.071 27 12.6 27v-2zM26 22.444c0 1.4-1.152 2.556-2.6 2.556v2c2.529 0 4.6-2.028 4.6-4.556h-2zM23.4 11c1.448 0 2.6 1.156 2.6 2.556h2C28 11.028 25.929 9 23.4 9v2zM12.6 9C10.071 9 8 11.028 8 13.556h2c0-1.4 1.152-2.556 2.6-2.556V9zm-.55 6.28l3.403 2.24 1.1-1.67-3.403-2.24-1.1 1.67zm8.497 2.24l3.403-2.24-1.1-1.67-3.403 2.24 1.1 1.67zm-5.094 0a4.638 4.638 0 005.094 0l-1.1-1.67a2.637 2.637 0 01-2.894 0l-1.1 1.67z" fill="#fff"/></svg>