<svg width="124" height="124" fill="none" xmlns="http://www.w3.org/2000/svg"><path d="M10.958 66.386a1 1 0 00-1.25 1.562l1.25-1.562zm17.595 15.357l-.625.78.625-.78zm14.136-1.157l-.743-.669.743.67zm40.72-43.75a1 1 0 10-1.486-1.338l1.487 1.338zm-41.451 29.55a1 1 0 00-1.25 1.562l1.25-1.562zm17.595 15.357l-.625.78.625-.78zm14.136-1.157l-.743-.669.743.67zm40.721-43.75a1 1 0 00-1.487-1.338l1.487 1.338zM9.708 67.948l18.22 14.576 1.25-1.562-18.22-14.576-1.25 1.562zm33.724 13.307l39.978-44.42-1.487-1.337-39.977 44.42 1.486 1.337zm-15.504 1.269a11.333 11.333 0 0015.504-1.269l-1.486-1.338a9.333 9.333 0 01-12.768 1.045l-1.25 1.561zm12.78-14.576l18.22 14.576 1.25-1.562-18.22-14.576-1.25 1.562zm33.724 13.307l39.978-44.42-1.487-1.337-39.978 44.42 1.487 1.337zm-15.504 1.269a11.333 11.333 0 0015.504-1.269l-1.487-1.338a9.333 9.333 0 01-12.767 1.045l-1.25 1.561z" fill="#fff"/></svg>