<svg width="36" height="36" fill="none" xmlns="http://www.w3.org/2000/svg"><path d="M13.799 25.36v-.906a.091.091 0 00-.081-.107 5.23 5.23 0 01-2.039-1.107 4.9 4.9 0 01-1.051-1.35 7.324 7.324 0 01-.744-2.337 17.113 17.113 0 01-.148-3.086c.01-.48.035-.956.09-1.436a8.67 8.67 0 01.689-2.65 4.59 4.59 0 012.318-2.333 9.63 9.63 0 012.213-.696 15.82 15.82 0 012.268-.258 20.758 20.758 0 012.06.03c.98.04 1.952.202 2.893.48.698.198 1.362.5 1.97.894a4.206 4.206 0 011.392 1.585 7.87 7.87 0 01.759 2.365c.082.488.136.981.161 1.476a20.456 20.456 0 01-.143 3.64 6.635 6.635 0 01-.819 2.555 4.744 4.744 0 01-2.604 2.116 12.06 12.06 0 01-2.318.555c-.578.079-1.156.136-1.738.16-.445.02-.89.015-1.335.008-.253 0-.503-.025-.754-.047a.128.128 0 00-.13.055 61.82 61.82 0 01-1.564 1.775 1.482 1.482 0 01-.332.273.624.624 0 01-.934-.344 1.625 1.625 0 01-.078-.508l-.001-.803zm.613 1.145l.065-.06 1.15-1.266 1.328-1.462a.209.209 0 01.193-.085c.15.015.3.02.452.022.523 0 1.047 0 1.57-.037.476-.037.95-.094 1.422-.168.507-.088 1.01-.202 1.505-.343 1.102-.293 1.955-.922 2.491-1.939a5.703 5.703 0 00.586-1.999 19.23 19.23 0 00.15-1.977 12.81 12.81 0 00-.17-2.481 6.975 6.975 0 00-.513-1.723c-.312-.683-.753-1.248-1.432-1.611-1.042-.558-2.17-.806-3.331-.933a14.05 14.05 0 00-.99-.067 18.018 18.018 0 00-2.032.01c-.487.037-.971.101-1.45.195a7.28 7.28 0 00-2.022.683 3.66 3.66 0 00-.99.725 4.548 4.548 0 00-.994 1.787 9.133 9.133 0 00-.368 2.373 17.82 17.82 0 00.03 2.412c.04.477.12.95.241 1.414a4.754 4.754 0 001.014 1.96 4.174 4.174 0 001.964 1.208c.095.029.138.061.138.168-.008.393 0 .787 0 1.18l-.007 2.014z" fill="#fff"/><path d="M13.448 14.308c-.01-.299.154-.516.353-.711a4.94 4.94 0 01.86-.654.695.695 0 01.891.145c.375.39.71.816 1.002 1.27.145.206.254.433.323.673a.54.54 0 01-.138.538 4.897 4.897 0 01-.507.43.581.581 0 00-.2.61c.11.516.36.993.723 1.38.442.533 1.01.95 1.654 1.21.159.081.34.106.514.07a.472.472 0 00.243-.157c.096-.121.201-.239.288-.369a.761.761 0 011.042-.203c.467.268.908.58 1.317.928.097.082.197.162.294.245a.65.65 0 01.21.76 2.015 2.015 0 01-.366.605c-.196.27-.445.496-.732.667a1.027 1.027 0 01-.915.058 12.118 12.118 0 01-3.091-1.8 12.038 12.038 0 01-2.37-2.595 10.741 10.741 0 01-1.31-2.61 3.282 3.282 0 01-.082-.34.725.725 0 01-.003-.15zm4.758-1.452c.932.017 1.83.358 2.535.963a3.939 3.939 0 011.323 2.35c.06.331.093.667.097 1.005 0 .079-.02.136-.106.144-.086.008-.108-.064-.108-.136a4.537 4.537 0 00-.413-1.979 3.664 3.664 0 00-1.04-1.31 3.707 3.707 0 00-1.517-.718 4.103 4.103 0 00-.894-.103.306.306 0 01-.087-.011.096.096 0 01-.067-.115.086.086 0 01.055-.079.086.086 0 01.034-.006c.062-.008.125-.005.188-.005z" fill="#fff"/><path d="M20.866 16.559a2.41 2.41 0 00-1.015-1.94 2.62 2.62 0 00-1.224-.454c-.075-.01-.149-.013-.225-.022-.076-.008-.121-.04-.114-.116.007-.076.055-.104.138-.098 1.22.074 2.26.758 2.58 2.032.058.245.087.497.086.75v.068c0 .068-.044.113-.111.112a.11.11 0 01-.107-.12c-.01-.063-.008-.129-.008-.212z" fill="#fff"/><path d="M18.726 15.038c.67.045 1.137.37 1.265 1.076.016.09.027.181.034.273 0 .074-.017.136-.098.136-.082 0-.11-.054-.112-.136 0-.27-.085-.535-.241-.757a1.022 1.022 0 00-.659-.366 1.494 1.494 0 00-.175-.021c-.096 0-.15-.048-.138-.122.013-.074.07-.087.124-.083z" fill="#fff"/></svg>