<svg width="36" height="36" fill="none" xmlns="http://www.w3.org/2000/svg"><path d="M9 26.333l1.291-4.802A8.88 8.88 0 0112.69 10.13a8.918 8.918 0 0111.646.753 8.887 8.887 0 01.905 11.616 8.921 8.921 0 01-11.39 2.541L9 26.333zm5.085-3.09l.3.177a7.21 7.21 0 008.72-1.06 7.183 7.183 0 00-2.272-11.755 7.211 7.211 0 00-8.489 2.255 7.18 7.18 0 00-1.488 4.387 7.099 7.099 0 001.052 3.726l.189.31-.723 2.68 2.71-.72z" fill="#fff"/><path fill-rule="evenodd" clip-rule="evenodd" d="M21.365 18.48a1.486 1.486 0 00-1.27-.289c-.331.137-.545.655-.758.914a.315.315 0 01-.407.091 5.758 5.758 0 01-2.878-2.462.344.344 0 01.046-.477 1.99 1.99 0 00.508-.847 1.845 1.845 0 00-.234-1.016 2.375 2.375 0 00-.737-1.111 1.018 1.018 0 00-1.093.167 2.245 2.245 0 00-.778 1.777c0 .188.025.376.071.558.118.439.3.858.54 1.244.172.296.36.582.564.858a8.664 8.664 0 002.445 2.264c.48.3.99.543 1.526.726a3.382 3.382 0 001.774.279 2.133 2.133 0 001.607-1.193c.087-.19.114-.403.076-.61-.091-.42-.656-.67-1.002-.872z" fill="#fff"/></svg>